<?xml version="1.0" encoding="utf-8"?>
<!-- Generator: Adobe Illustrator 24.2.3, SVG Export Plug-In . SVG Version: 6.00 Build 0)  -->
<svg version="1.1" xmlns="http://www.w3.org/2000/svg" xmlns:xlink="http://www.w3.org/1999/xlink" x="0px" y="0px"
	 viewBox="0 0 683.8 317.6" style="enable-background:new 0 0 683.8 317.6;" xml:space="preserve">
<style type="text/css">
	.st0{fill:url(#SVGID_1_);}
	.st1{fill:url(#SVGID_2_);}
	.st2{fill:#FFFFFF;}
	.st3{fill:#A5F729;}
</style>
<g id="Ebene_2">
	<linearGradient id="SVGID_1_" gradientUnits="userSpaceOnUse" x1="0" y1="158.8" x2="683.8" y2="158.8">
		<stop  offset="2.554000e-02" style="stop-color:#141932"/>
		<stop  offset="0.202" style="stop-color:#151D37"/>
		<stop  offset="0.4227" style="stop-color:#172947"/>
		<stop  offset="0.6668" style="stop-color:#1A3C60"/>
		<stop  offset="0.9161" style="stop-color:#1E5582"/>
	</linearGradient>
	<rect class="st0" width="683.8" height="317.6"/>
</g>
<g id="Ebene_1">
	<g>
		<g>
			
				<linearGradient id="SVGID_2_" gradientUnits="userSpaceOnUse" x1="209.7836" y1="104.4892" x2="91.6803" y2="172.6763" gradientTransform="matrix(1 0 0 1 0 17.8898)">
				<stop  offset="2.550000e-02" style="stop-color:#A5F729"/>
				<stop  offset="0.9161" style="stop-color:#009EE2"/>
			</linearGradient>
			<path class="st1" d="M135.4,230.4c-5.8,0-10.8-0.8-15.1-2.4c-5.9-2.2-10.3-5.9-13.3-10.9c-2.8-4.8-4.1-10.6-4.2-16.8
				c-8.1-9.9-13.3-22.8-14.9-37.6c-2.2-19.3,5.3-39.1,21-55.9c0-0.1,0.1-0.1,0.1-0.1c24.7-23.2,44.9-19.8,50.5-18.2
				c13.9,3.9,21.8,12.3,23.4,24.8c0.2,1.9,0.3,3.9,0.3,5.8c17.2,3,30,12.9,32.1,14.6c3.4,2.4,4.4,5.9,2.7,9.2
				c-4.8,9.5-32.6,17.9-42.4,14.5c-3.8-1.3-5.6-4.3-4.8-8c0.5-2.3,1.2-5.1,2.1-8c1.7-5.9,3.1-11.7,3.8-17.1
				c-5.6-0.4-11.4,0.1-17.4,2c-13.7,4.4-25.8,13.7-35.7,27.8l0,0c-6.6,9.3-14.5,28.2-14.8,43.9c8.6,9.7,20.4,15.3,34,15.6
				c17.3,0.4,30.4-4.6,37.5-7.3c0.9-0.4,1.8-0.7,2.4-0.9c1-0.4,2.1-0.2,3,0.5c0.3,0.3,0.6,0.6,0.7,0.9c0.8,1.4,0.3,2.6,0.1,2.9
				s-0.4,0.7-0.8,0.9c-3,3.1-17.1,16.4-42,19.2C140.8,230.2,138,230.4,135.4,230.4z M109.5,207.2c0.6,2.5,1.4,4.8,2.6,6.8
				c4.9,8.3,15.3,11.7,30.8,9.9c9.8-1.1,17.7-3.9,23.8-7c-6.8,1.7-15,2.9-24.2,2.7C130,219.4,118.7,215.1,109.5,207.2z M113.1,110.9
				c-8.4,9-22,27.5-19.4,51.1c1.2,11.1,4.6,20.9,9.6,28.9c2.1-15.7,9.5-32,15.3-40.2c10.7-15.2,23.8-25.3,38.8-30
				c6.8-2.2,13.5-2.7,19.7-2.3c0.1-11.1-4.5-19.9-19.2-24.1C153,92.8,135.4,90,113.1,110.9z M182.6,125.2
				c-0.8,6.4-2.6,12.5-4.1,17.9c-0.8,2.9-1.5,5.4-2,7.5c-0.1,0.6-0.2,0.8,0.9,1.1c7.7,2.7,31.9-5.3,35-11.5c0.2-0.5,0.4-0.8-0.9-1.6
				c-0.1-0.1-0.1-0.1-0.2-0.2C210.8,137.8,198.8,128.2,182.6,125.2z"/>
		</g>
		<g>
			<path class="st2" d="M283.3,135.4v7.9h-15.5c-4.4,0-7.5,1.1-9.5,3.4s-3,6.1-3,11.3s1,8.9,2.9,11.2s5.1,3.4,9.6,3.4h15.5v7.9
				h-15.5c-6.6,0-11.6-1.9-15.1-5.6c-3.5-3.7-5.2-9.4-5.2-17s1.8-13.3,5.2-17c3.5-3.7,8.5-5.6,15.1-5.6L283.3,135.4L283.3,135.4z"/>
			<path class="st2" d="M312,145.2c4.7,0,8.4,1.5,11.2,4.4s3.6,7.4,3.6,13.3c0,6-0.8,10.4-3.6,13.3c-2.8,2.9-6.5,4.4-11.2,4.4h-6.6
				c-4.7,0-8.5-1.4-11.2-4.4c-2.7-2.9-3.5-7.3-3.5-13.3s0.8-10.4,3.5-13.3c2.7-2.9,6.5-4.4,11.2-4.4H312z M306.1,152.1
				c-3.1,0-5.3,0.9-6.7,2.5s-1.5,4.5-1.5,8.3s0.1,6.6,1.5,8.3s3.6,2.5,6.7,2.5h5.2c3.1,0,5.3-0.8,6.7-2.5c1.4-1.7,1.5-4.4,1.5-8.3
				s-0.1-6.6-1.5-8.3s-3.6-2.5-6.7-2.5H306.1z"/>
			<path class="st2" d="M373.1,145.2c6,0,10.5,1.4,13.5,4.1c2.9,2.7,4.4,6.5,4.4,11.4v19.9h-7.2v-19.9c0-2.8-0.8-4.9-2.5-6.4
				s-4.4-2.2-8.1-2.2h-6.9v28.5h-7.2v-28.5h-16c-0.6,0-0.9,0.3-0.9,1v27.5h-7.1v-29.8c0-2.1,0.4-3.5,1.1-4.3s2-1.2,3.8-1.2
				L373.1,145.2L373.1,145.2z"/>
			<path class="st2" d="M421.4,145.2c4.7,0,8.4,1.5,11.1,4.4s3.5,7.4,3.5,13.3c0,6-0.8,10.4-3.5,13.3c-2.7,2.9-6.5,4.4-11.1,4.4
				h-13.7v14.2h-7.1v-34.4c0-5.1,1.1-8.9,3.3-11.4c2.2-2.5,5.4-3.7,9.7-3.7L421.4,145.2L421.4,145.2z M407.7,173.7h12.9
				c3.1,0,5.3-0.8,6.7-2.5s1.5-4.4,1.5-8.3s-0.1-6.6-1.5-8.3s-3.6-2.5-6.7-2.5h-5c-2.9,0-5,0.7-6.1,2c-1.2,1.3-1.8,3.5-1.8,6.6
				V173.7z"/>
			<path class="st2" d="M451.6,145.2v21.1c0,2.1,0.8,3.8,2.2,5.2s3.6,2.1,6.5,2.1h3.8c2.8,0,5-0.7,6.4-2.1s2.2-3.1,2.2-5.2v-21.1h7
				v21.4c0,2.1-0.3,3.9-1,5.6s-1.6,3.2-2.9,4.4s-2.9,2.2-4.8,2.9s-4.1,1-6.7,1h-4.6c-2.5,0-4.8-0.3-6.7-1c-1.9-0.7-3.5-1.6-4.8-2.9
				c-1.3-1.2-2.3-2.7-2.9-4.4s-1-3.6-1-5.6v-21.4H451.6z"/>
			<path class="st2" d="M537.8,145.2c4.7,0,8.4,1.5,11.2,4.4s3.6,7.4,3.6,13.3c0,6-0.8,10.4-3.6,13.3c-2.8,2.9-6.5,4.4-11.2,4.4
				h-6.6c-4.7,0-8.5-1.4-11.2-4.4c-2.7-2.9-3.5-7.3-3.5-13.3s0.8-10.4,3.5-13.3s6.5-4.4,11.2-4.4H537.8z M531.9,152.1
				c-3.1,0-5.3,0.9-6.7,2.5s-1.5,4.5-1.5,8.3s0.1,6.6,1.5,8.3s3.7,2.5,6.7,2.5h5.2c3.1,0,5.3-0.8,6.7-2.5s1.5-4.4,1.5-8.3
				s-0.1-6.6-1.5-8.3s-3.7-2.5-6.7-2.5H531.9z"/>
			<path class="st2" d="M581.7,145.2c4.7,0,8.4,1.5,11.1,4.4s3.5,7.4,3.5,13.3c0,6-0.8,10.4-3.5,13.3c-2.7,2.9-6.5,4.4-11.1,4.4H568
				v14.2h-7v-34.4c0-5.1,1.1-8.9,3.3-11.4s5.4-3.7,9.7-3.7L581.7,145.2L581.7,145.2z M568,173.7h13c3.1,0,5.3-0.8,6.7-2.5
				s1.5-4.4,1.5-8.3s-0.1-6.6-1.5-8.3s-3.7-2.5-6.7-2.5h-5c-2.9,0-5,0.7-6.2,2s-1.8,3.5-1.8,6.6V173.7z"/>
			<path class="st2" d="M502,174c-2.5,0-4.8-2.1-4.8-4.8V152h9.8v-6.8h-9.8v-8.4h-7.1v32.4c0,6.4,4.9,11.3,11.3,11.3h11.7V174H502
				L502,174z"/>
		</g>
		<g>
			<path class="st3" d="M250.4,205.7h6.2v2.5h-6.2v7.6c0,0.8,0.1,1.5,0.2,2s0.3,1,0.6,1.3c0.2,0.3,0.6,0.5,0.9,0.6s0.8,0.2,1.3,0.2
				c0.9,0,1.6-0.1,2.1-0.3c0.5-0.2,0.9-0.3,1.1-0.4l0.6,2.4c-0.3,0.1-0.8,0.3-1.6,0.6s-1.6,0.3-2.5,0.3c-1.1,0-2-0.1-2.8-0.4
				c-0.7-0.3-1.3-0.7-1.8-1.3c-0.4-0.6-0.8-1.3-0.9-2.1s-0.3-1.8-0.3-2.9v-14.7l2.9-0.5L250.4,205.7L250.4,205.7z"/>
			<path class="st3" d="M261.5,222.1v-24l2.9-0.5v8.4c0.5-0.2,1.1-0.4,1.8-0.5c0.6-0.1,1.2-0.2,1.9-0.2c1.3,0,2.4,0.2,3.2,0.6
				c0.9,0.4,1.5,0.9,2.1,1.6c0.5,0.7,0.9,1.5,1.1,2.4s0.3,1.9,0.3,3.1v9.2h-2.9v-8.6c0-1-0.1-1.9-0.2-2.6c-0.1-0.7-0.4-1.3-0.7-1.7
				s-0.7-0.8-1.3-1c-0.5-0.2-1.2-0.3-2-0.3c-0.3,0-0.6,0-1,0.1s-0.7,0.1-1,0.1c-0.3,0.1-0.6,0.1-0.8,0.2c-0.2,0.1-0.4,0.1-0.5,0.2
				v13.6L261.5,222.1L261.5,222.1z"/>
			<path class="st3" d="M279.9,213.9c0-1.4,0.2-2.7,0.6-3.8s1-2,1.7-2.7s1.5-1.2,2.4-1.6c0.9-0.4,1.8-0.5,2.8-0.5
				c2.2,0,3.9,0.7,5.1,2.1s1.8,3.5,1.8,6.3c0,0.1,0,0.3,0,0.5s0,0.4,0,0.6h-11.2c0.1,1.7,0.6,3,1.5,3.9s2.2,1.3,4,1.3
				c1,0,1.9-0.1,2.6-0.3s1.2-0.4,1.6-0.5l0.4,2.5c-0.4,0.2-1,0.4-1.9,0.6s-1.9,0.3-3,0.3c-1.4,0-2.7-0.2-3.7-0.6
				c-1-0.4-1.9-1-2.6-1.8s-1.2-1.7-1.5-2.7C280,216.3,279.9,215.2,279.9,213.9z M291.1,212.3c0-1.3-0.3-2.4-1-3.3
				c-0.7-0.9-1.6-1.3-2.8-1.3c-0.7,0-1.3,0.1-1.8,0.4c-0.5,0.3-1,0.6-1.3,1s-0.6,0.9-0.8,1.4c-0.2,0.6-0.3,1.1-0.4,1.7L291.1,212.3
				L291.1,212.3z"/>
			<path class="st3" d="M322.6,213.9c0,1.2-0.2,2.4-0.5,3.4s-0.8,2-1.4,2.7s-1.4,1.4-2.3,1.8c-0.9,0.4-2,0.6-3.1,0.6
				c-1,0-1.8-0.1-2.5-0.4c-0.7-0.2-1.3-0.5-1.6-0.7v6.6h-2.9v-21.8c0.7-0.2,1.6-0.4,2.6-0.6c1-0.2,2.2-0.3,3.6-0.3
				c1.3,0,2.4,0.2,3.4,0.6c1,0.4,1.9,1,2.6,1.7s1.3,1.6,1.7,2.7C322.4,211.4,322.6,212.6,322.6,213.9z M319.5,213.9
				c0-1.9-0.5-3.4-1.4-4.4s-2.2-1.6-3.8-1.6c-0.9,0-1.6,0-2.1,0.1s-0.9,0.1-1.2,0.2v10.4c0.4,0.3,0.9,0.6,1.5,0.9
				c0.7,0.3,1.4,0.4,2.2,0.4c0.8,0,1.6-0.1,2.2-0.5c0.6-0.3,1.1-0.7,1.5-1.3c0.4-0.5,0.6-1.2,0.8-1.9
				C319.5,215.6,319.5,214.8,319.5,213.9z"/>
			<path class="st3" d="M333.2,205.3c1.2,0,2.2,0.1,3,0.5c0.8,0.3,1.5,0.7,2,1.3s0.9,1.2,1.1,2s0.3,1.6,0.3,2.5v10.3
				c-0.2,0-0.6,0.1-1.1,0.2c-0.5,0.1-1,0.1-1.5,0.2c-0.6,0.1-1.2,0.1-1.9,0.2c-0.7,0.1-1.3,0.1-2,0.1c-0.9,0-1.8-0.1-2.6-0.3
				s-1.5-0.5-2-0.9s-1-0.9-1.3-1.6c-0.3-0.7-0.5-1.5-0.5-2.4s0.2-1.7,0.5-2.3c0.4-0.6,0.9-1.2,1.5-1.6c0.6-0.4,1.4-0.7,2.2-0.9
				c0.8-0.2,1.7-0.3,2.6-0.3c0.3,0,0.6,0,0.9,0.1s0.6,0.1,0.9,0.1c0.3,0.1,0.5,0.1,0.7,0.1s0.4,0.1,0.4,0.1v-0.8c0-0.5,0-1-0.2-1.4
				c-0.1-0.5-0.3-0.9-0.6-1.3c-0.3-0.4-0.6-0.7-1.1-0.9s-1.1-0.3-1.9-0.3c-1,0-1.8,0.1-2.5,0.2c-0.7,0.1-1.3,0.3-1.6,0.4l-0.4-2.4
				c0.4-0.2,1-0.3,1.9-0.5C331.3,205.3,332.2,205.3,333.2,205.3z M333.5,220c0.7,0,1.3,0,1.9-0.1s1-0.1,1.3-0.2v-4.9
				c-0.2-0.1-0.5-0.2-1-0.3s-1-0.1-1.7-0.1c-0.4,0-0.9,0-1.4,0.1s-1,0.2-1.4,0.4s-0.8,0.5-1,0.8c-0.3,0.4-0.4,0.8-0.4,1.4
				c0,1.1,0.3,1.8,1,2.2C331.4,219.8,332.3,220,333.5,220z"/>
			<path class="st3" d="M343.2,225.2c0.2,0.1,0.5,0.2,0.9,0.3s0.7,0.1,1.1,0.1c1.2,0,2.1-0.3,2.7-0.8s1.2-1.4,1.8-2.5
				c-1.3-2.5-2.6-5.2-3.7-8s-2.1-5.7-2.9-8.6h3.2c0.2,0.9,0.5,2,0.8,3.1s0.7,2.2,1.1,3.4s0.8,2.3,1.3,3.5s1,2.3,1.5,3.4
				c0.8-2.2,1.5-4.4,2.1-6.6c0.6-2.2,1.1-4.4,1.7-6.7h3c-0.8,3.1-1.6,6.1-2.5,8.9c-0.9,2.9-1.9,5.5-3,8c-0.4,0.9-0.9,1.8-1.3,2.4
				c-0.5,0.7-1,1.2-1.5,1.7s-1.2,0.8-1.9,1c-0.7,0.2-1.5,0.3-2.3,0.3c-0.2,0-0.5,0-0.7-0.1c-0.2,0-0.5-0.1-0.7-0.1
				c-0.2-0.1-0.5-0.1-0.7-0.2s-0.3-0.1-0.4-0.2L343.2,225.2z"/>
			<path class="st3" d="M362.1,206.1c0.7-0.2,1.6-0.4,2.7-0.5c1.1-0.2,2.4-0.3,3.8-0.3c1,0,1.9,0.1,2.6,0.4c0.7,0.3,1.3,0.7,1.8,1.2
				c0.1-0.1,0.4-0.2,0.7-0.4s0.7-0.4,1.2-0.6c0.5-0.2,1-0.3,1.5-0.5c0.6-0.1,1.2-0.2,1.8-0.2c1.3,0,2.3,0.2,3.1,0.6
				c0.8,0.4,1.4,0.9,1.9,1.6s0.8,1.5,0.9,2.4s0.2,1.9,0.2,3v9.2h-2.9v-8.6c0-1,0-1.8-0.1-2.5s-0.3-1.3-0.5-1.7
				c-0.3-0.5-0.6-0.8-1.1-1s-1-0.3-1.8-0.3c-1,0-1.8,0.1-2.5,0.4s-1.1,0.5-1.3,0.7c0.2,0.6,0.3,1.1,0.4,1.8c0.1,0.6,0.1,1.3,0.1,2.1
				v9.2h-2.9v-8.6c0-1,0-1.8-0.2-2.5c-0.1-0.7-0.3-1.3-0.5-1.7c-0.3-0.5-0.6-0.8-1.1-1s-1-0.3-1.7-0.3c-0.3,0-0.6,0-1,0
				c-0.3,0-0.7,0.1-1,0.1s-0.6,0.1-0.8,0.1s-0.4,0.1-0.5,0.1v13.9H362L362.1,206.1L362.1,206.1z"/>
			<path class="st3" d="M389.5,213.9c0-1.4,0.2-2.7,0.6-3.8s1-2,1.7-2.7s1.5-1.2,2.4-1.6c0.9-0.4,1.8-0.5,2.8-0.5
				c2.2,0,3.9,0.7,5.1,2.1s1.8,3.5,1.8,6.3c0,0.1,0,0.3,0,0.5s0,0.4,0,0.6h-11.2c0.1,1.7,0.6,3,1.5,3.9s2.2,1.3,4,1.3
				c1,0,1.9-0.1,2.6-0.3s1.2-0.4,1.6-0.5l0.4,2.5c-0.4,0.2-1,0.4-1.9,0.6s-1.9,0.3-3,0.3c-1.4,0-2.7-0.2-3.7-0.6
				c-1-0.4-1.9-1-2.6-1.8s-1.2-1.7-1.5-2.7C389.7,216.3,389.5,215.2,389.5,213.9z M400.8,212.3c0-1.3-0.3-2.4-1-3.3
				c-0.7-0.9-1.6-1.3-2.8-1.3c-0.7,0-1.3,0.1-1.8,0.4c-0.5,0.3-1,0.6-1.3,1s-0.6,0.9-0.8,1.4c-0.2,0.6-0.3,1.1-0.4,1.7L400.8,212.3
				L400.8,212.3z"/>
			<path class="st3" d="M409.3,206.1c0.7-0.2,1.6-0.4,2.7-0.5c1.1-0.2,2.4-0.3,3.9-0.3c1.3,0,2.4,0.2,3.2,0.6
				c0.9,0.4,1.5,0.9,2.1,1.6c0.5,0.7,0.9,1.5,1.1,2.4s0.3,1.9,0.3,3.1v9.2h-2.9v-8.6c0-1-0.1-1.9-0.2-2.6c-0.1-0.7-0.4-1.3-0.7-1.7
				s-0.7-0.8-1.3-1c-0.5-0.2-1.2-0.3-2-0.3c-0.3,0-0.6,0-1,0s-0.7,0.1-1,0.1s-0.6,0.1-0.8,0.1c-0.2,0-0.4,0.1-0.5,0.1v13.9h-2.9
				L409.3,206.1L409.3,206.1z"/>
			<path class="st3" d="M431.4,205.7h6.2v2.5h-6.2v7.6c0,0.8,0.1,1.5,0.2,2s0.3,1,0.6,1.3c0.2,0.3,0.6,0.5,1,0.6s0.8,0.2,1.3,0.2
				c0.9,0,1.6-0.1,2.1-0.3s0.9-0.3,1.1-0.4l0.6,2.4c-0.3,0.1-0.8,0.3-1.5,0.6s-1.6,0.3-2.5,0.3c-1.1,0-2-0.1-2.8-0.4
				c-0.7-0.3-1.3-0.7-1.8-1.3c-0.4-0.6-0.8-1.3-0.9-2.1s-0.3-1.8-0.3-2.9v-14.7l2.9-0.5L431.4,205.7L431.4,205.7z"/>
			<path class="st3" d="M465.5,213.9c0,1.2-0.2,2.4-0.5,3.4s-0.8,2-1.4,2.7s-1.4,1.4-2.3,1.8c-0.9,0.4-2,0.6-3.1,0.6
				c-1,0-1.8-0.1-2.5-0.4c-0.7-0.2-1.3-0.5-1.6-0.7v6.6h-2.9v-21.8c0.7-0.2,1.6-0.4,2.6-0.6c1-0.2,2.2-0.3,3.6-0.3
				c1.3,0,2.4,0.2,3.4,0.6c1,0.4,1.9,1,2.6,1.7s1.3,1.6,1.7,2.7C465.3,211.4,465.5,212.6,465.5,213.9z M462.5,213.9
				c0-1.9-0.5-3.4-1.4-4.4s-2.2-1.6-3.8-1.6c-0.9,0-1.6,0-2.1,0.1s-0.9,0.1-1.2,0.2v10.4c0.4,0.3,0.9,0.6,1.5,0.9
				c0.7,0.3,1.4,0.4,2.2,0.4c0.8,0,1.6-0.1,2.2-0.5c0.6-0.3,1.1-0.7,1.5-1.3c0.4-0.5,0.6-1.2,0.8-1.9
				C462.4,215.6,462.5,214.8,462.5,213.9z"/>
			<path class="st3" d="M470,213.9c0-1.4,0.2-2.7,0.6-3.8s1-2,1.7-2.7s1.5-1.2,2.4-1.6c0.9-0.4,1.8-0.5,2.8-0.5
				c2.2,0,3.9,0.7,5.1,2.1s1.8,3.5,1.8,6.3c0,0.1,0,0.3,0,0.5s0,0.4,0,0.6H473c0.1,1.7,0.6,3,1.5,3.9s2.2,1.3,4,1.3
				c1,0,1.9-0.1,2.6-0.3s1.2-0.4,1.6-0.5l0.4,2.5c-0.4,0.2-1,0.4-1.9,0.6s-1.9,0.3-3,0.3c-1.4,0-2.7-0.2-3.7-0.6
				c-1-0.4-1.9-1-2.6-1.8s-1.2-1.7-1.5-2.7C470.1,216.3,470,215.2,470,213.9z M481.2,212.3c0-1.3-0.3-2.4-1-3.3
				c-0.7-0.9-1.6-1.3-2.8-1.3c-0.7,0-1.3,0.1-1.8,0.4c-0.5,0.3-1,0.6-1.3,1s-0.6,0.9-0.8,1.4c-0.2,0.6-0.3,1.1-0.4,1.7L481.2,212.3
				L481.2,212.3z"/>
			<path class="st3" d="M504.2,213.9c0,1.3-0.2,2.5-0.6,3.5c-0.4,1.1-0.9,2-1.6,2.7s-1.5,1.3-2.5,1.8s-2,0.6-3.1,0.6
				s-2.1-0.2-3.1-0.6c-1-0.4-1.8-1-2.5-1.8s-1.2-1.7-1.6-2.7c-0.4-1.1-0.6-2.2-0.6-3.5s0.2-2.5,0.6-3.5s0.9-2,1.6-2.7
				c0.7-0.8,1.5-1.3,2.5-1.8s2-0.6,3.1-0.6s2.1,0.2,3.1,0.6c1,0.4,1.8,1,2.5,1.8s1.2,1.7,1.6,2.7S504.2,212.6,504.2,213.9z
				 M501.2,213.9c0-1.9-0.4-3.3-1.2-4.4c-0.8-1.1-2-1.6-3.4-1.6s-2.6,0.5-3.4,1.6s-1.2,2.6-1.2,4.4c0,1.9,0.4,3.3,1.2,4.4
				c0.8,1.1,2,1.6,3.4,1.6s2.6-0.5,3.4-1.6C500.8,217.2,501.2,215.7,501.2,213.9z"/>
			<path class="st3" d="M524,213.9c0,1.2-0.2,2.4-0.5,3.4s-0.8,2-1.4,2.7s-1.4,1.4-2.3,1.8c-0.9,0.4-2,0.6-3.1,0.6
				c-1,0-1.8-0.1-2.5-0.4c-0.7-0.2-1.3-0.5-1.6-0.7v6.6h-2.9v-21.8c0.7-0.2,1.6-0.4,2.6-0.6c1-0.2,2.2-0.3,3.6-0.3
				c1.3,0,2.4,0.2,3.4,0.6c1,0.4,1.9,1,2.6,1.7c0.7,0.7,1.3,1.6,1.7,2.7C523.8,211.4,524,212.6,524,213.9z M521,213.9
				c0-1.9-0.5-3.4-1.4-4.4s-2.2-1.6-3.8-1.6c-0.9,0-1.6,0-2.1,0.1s-0.9,0.1-1.2,0.2v10.4c0.4,0.3,0.9,0.6,1.5,0.9
				c0.7,0.3,1.4,0.4,2.2,0.4s1.6-0.1,2.2-0.5c0.6-0.3,1.1-0.7,1.5-1.3c0.4-0.5,0.7-1.2,0.8-1.9C520.9,215.6,521,214.8,521,213.9z"/>
			<path class="st3" d="M534.3,222.4c-1.8,0-3.1-0.4-3.8-1.2c-0.8-0.7-1.1-1.9-1.1-3.4v-19.7l2.9-0.5v19.8c0,0.5,0,0.9,0.1,1.2
				s0.2,0.6,0.4,0.8s0.4,0.3,0.8,0.4c0.3,0.1,0.7,0.2,1.2,0.2L534.3,222.4z"/>
			<path class="st3" d="M538.3,213.9c0-1.4,0.2-2.7,0.6-3.8c0.4-1.1,1-2,1.7-2.7s1.5-1.2,2.4-1.6c0.9-0.4,1.8-0.5,2.8-0.5
				c2.2,0,3.9,0.7,5.1,2.1c1.2,1.4,1.8,3.5,1.8,6.3c0,0.1,0,0.3,0,0.5s0,0.4,0,0.6h-11.2c0.1,1.7,0.6,3,1.5,3.9s2.2,1.3,4,1.3
				c1,0,1.9-0.1,2.6-0.3c0.7-0.2,1.2-0.4,1.6-0.5l0.4,2.5c-0.4,0.2-1,0.4-1.9,0.6s-1.9,0.3-3,0.3c-1.4,0-2.7-0.2-3.7-0.6
				c-1-0.4-1.9-1-2.6-1.8c-0.7-0.8-1.2-1.7-1.5-2.7C538.5,216.3,538.3,215.2,538.3,213.9z M549.6,212.3c0-1.3-0.3-2.4-1-3.3
				c-0.7-0.9-1.6-1.3-2.8-1.3c-0.7,0-1.3,0.1-1.8,0.4c-0.5,0.3-1,0.6-1.3,1s-0.6,0.9-0.8,1.4c-0.2,0.6-0.3,1.1-0.4,1.7L549.6,212.3
				L549.6,212.3z"/>
		</g>
	</g>
</g>
</svg>
